<svg width="30" height="30" fill="none" xmlns="http://www.w3.org/2000/svg"><path d="M6.116 8.01a.5.5 0 1 0 1 0h-1Zm10.769 0a.5.5 0 0 0 1 0h-1ZM8.52 17.298l.243.436-.243-.436Zm12.944-7.222.244.437-.244-.437Zm.914.292-.43.257.43-.257Zm1.024 1.715.43-.257-.43.257Zm4.492 7.518.429-.257-.43.257Zm-.195.91.244.437-.244-.437Zm-13.29 7.415-.244-.437.243.437Zm-.914-.292.43-.257-.43.257Zm-3.413-5.714-.43.257.43-.257Zm-1.943-3.25-.429.256.43-.257Zm5.384 3.96a.5.5 0 0 0 .487.873l-.487-.873Zm4.087-1.135a.5.5 0 0 0-.488-.873l.488.873Zm-3.01 2.94a.5.5 0 0 0 .488.872l-.487-.873Zm2.98-.518a.5.5 0 0 0-.487-.873l.487.873ZM22 10.046l-.18.467.18-.467ZM2.2 8.511h19.6v-1H2.2v1ZM21.8 27.5H2.2v1h19.6v-1Zm-19.3.3V8.21h-1V27.8h1ZM7.116 8.01v-.628h-1v.629h1Zm9.769-.628v.629h1v-.63h-1ZM12 2.5a4.883 4.883 0 0 1 4.885 4.882h1A5.883 5.883 0 0 0 12 1.5v1Zm0-1a5.883 5.883 0 0 0-5.884 5.882h1A4.883 4.883 0 0 1 12 2.5v-1Zm-9.8 26a.3.3 0 0 1 .3.3h-1a.7.7 0 0 0 .7.7v-1Zm19.3.3a.3.3 0 0 1 .3-.3v1a.7.7 0 0 0 .7-.7h-1Zm.3-19.29a.3.3 0 0 1-.3-.3h1a.7.7 0 0 0-.7-.7v1Zm-19.6-1a.7.7 0 0 0-.7.7h1a.3.3 0 0 1-.3.3v-1Zm6.563 10.223 12.945-7.222-.487-.873L8.276 16.86l.487.873Zm13.185-7.11 1.025 1.715.858-.512-1.024-1.715-.859.513Zm1.025 1.715 1.078 1.805.858-.513-1.078-1.805-.858.513Zm1.078 1.805 3.413 5.713.859-.513-3.414-5.713-.858.513ZM13.924 27.376l-3.413-5.713-.859.513 3.414 5.713.858-.513Zm-3.413-5.713-1.078-1.805-.859.513 1.078 1.805.859-.513Zm-1.078-1.805-.864-1.446-.859.513.864 1.446.859-.512Zm4.732 7.63c-.019.01-.052.019-.101.003a.258.258 0 0 1-.14-.115l-.858.513c.313.525 1.006.796 1.586.473l-.487-.874Zm13.3-7.632a.22.22 0 0 1 .032.155c-.008.036-.025.053-.041.062l.487.874c.593-.332.697-1.073.38-1.604l-.859.513Zm-18.218.696 14.399-8.033-.488-.874L8.76 19.678l.487.874Zm1.078 1.804 14.399-8.033-.488-.873-14.398 8.033.487.873Zm3.685 1.146 3.6-2.008-.488-.873-3.6 2.008.488.873Zm1.078 1.805 2.492-1.39-.487-.874-2.492 1.39.487.873ZM8.276 16.86a1.486 1.486 0 0 0-.566 2.065l.859-.513a.486.486 0 0 1 .194-.679l-.487-.873Zm13.432-6.348c.02-.011.057-.02.112 0l.36-.932a1.129 1.129 0 0 0-.96.058l.488.873Zm.112 0a.26.26 0 0 1 .128.112l.859-.513a1.261 1.261 0 0 0-.627-.531l-.36.933Zm-.32-2.301v1.835h1V8.211h-1Zm0 15.478V27.8h1v-4.11h-1Zm5.956-3.616-5.7 3.18.488.873 5.699-3.18-.488-.873Zm-5.7 3.18-7.591 4.235.487.874 7.592-4.236-.488-.873Z" fill="#292933"/></svg>