<svg width="50" height="50" fill="none" xmlns="http://www.w3.org/2000/svg"><path d="M14.565 39.771c0 2.336-1.868 4.229-4.174 4.229-2.305 0-4.174-1.893-4.174-4.229m8.348 0c0-2.335-1.868-4.228-4.174-4.228-2.305 0-4.174 1.893-4.174 4.228m8.348 0h15.652m-24 0H1V7h29.217v7.4m13.566 25.371c0 2.336-1.87 4.229-4.174 4.229-2.306 0-4.174-1.893-4.174-4.229m8.348 0c0-2.335-1.87-4.228-4.174-4.228-2.306 0-4.174 1.893-4.174 4.228m8.348 0H49V27.086L47.956 25.5M35.435 39.771h-5.218m0-25.371v25.371m0-25.371h7.305m0 0h5.217l.994 2.114 4.224 8.986M37.521 14.4v11.1h10.434" stroke="#B69B89"/></svg>