<svg width="160" height="47" viewBox="0 0 160 47" fill="none" xmlns="http://www.w3.org/2000/svg">
<path d="M34.2834 27.9216C34.5528 28.7421 34.0951 29.2476 33.2898 29.7377C30.4791 31.4452 27.7317 33.2315 24.9527 35.0021C24.5579 35.2551 24.2578 35.3027 23.8152 35.0664C20.7485 33.4278 17.6818 31.8365 14.5993 30.2452C14.1093 29.9932 13.9352 29.6934 13.9188 29.1568C13.8049 25.6685 13.6435 22.1802 13.5453 18.6762C13.545 18.4236 13.7185 18.0604 13.9237 17.9339C16.9396 15.9737 19.987 14.045 23.0345 12.1321C23.224 12.0214 23.5874 12.0211 23.7929 12.1156C26.9702 13.7383 30.1317 15.4084 33.309 17.0311C33.7833 17.2674 33.8468 17.5989 33.863 18.0408C33.9926 21.2923 34.1379 24.5438 34.2834 27.9216ZM32.4335 26.5659C32.4177 26.5659 32.4019 26.5659 32.4019 26.5659C32.3047 24.072 32.1917 21.5782 32.1103 19.0843C32.094 18.5792 31.8883 18.3426 31.4773 18.1378C29.0272 16.8775 26.577 15.6171 24.1426 14.3251C23.6684 14.073 23.3208 14.0733 22.8629 14.3737C20.8418 15.7016 18.8208 17.0452 16.7364 18.2627C15.71 18.8635 15.284 19.4795 15.4116 20.7421C15.651 23.2201 15.6693 25.7298 15.7507 28.2237C15.767 28.6972 15.9726 28.918 16.352 29.1228C18.8021 30.3832 21.2523 31.6594 23.6867 32.9514C24.1452 33.2035 24.4611 33.1874 24.8875 32.9028C27.2085 31.401 29.5297 29.9308 31.8824 28.4763C32.2929 28.2234 32.4823 27.9391 32.4344 27.4656C32.4025 27.1499 32.4338 26.8658 32.4335 26.5659Z" fill="#8E1533"/>
<path d="M23.2216 41.5544C23.696 41.9485 24.1229 42.2954 24.5973 42.6895C23.2718 44.3955 21.5665 45.4863 19.4971 45.8987C12.91 47.231 8.2755 41.9319 8.38116 36.8492C8.51744 30.772 8.40094 24.695 8.39503 18.618C8.39475 18.3339 8.39447 18.0497 8.39414 17.7025C9.02612 17.7019 9.57911 17.7013 10.2585 17.7007C10.2588 18.0164 10.2591 18.3321 10.2594 18.632C10.2654 24.8195 10.2714 30.9913 10.2774 37.1788C10.281 40.8251 13.1595 43.916 16.8096 44.244C19.4009 44.4782 21.4698 43.5133 23.2216 41.5544Z" fill="#8E1533"/>
<path d="M24.6088 5.70634C24.0869 5.28066 23.6442 4.90226 23.1698 4.52389C24.7479 2.59664 26.7376 1.474 29.1072 1.17179C33.8307 0.551593 38.2419 3.73579 39.2102 8.3913C39.2738 8.72271 39.3215 9.06993 39.3218 9.40141C39.3282 15.9204 39.3345 22.4395 39.3409 28.9585C39.341 29.1163 39.3253 29.2584 39.3097 29.4636C38.7252 29.4642 38.188 29.4647 37.5086 29.4654C37.5083 29.1655 37.508 28.8656 37.5077 28.5656C37.5018 22.5202 37.4012 16.4748 37.5375 10.4291C37.6133 7.17744 35.2564 4.30694 33.0436 3.45672C30.0722 2.33891 27.1183 2.98894 24.8454 5.37463C24.7665 5.45363 24.7192 5.54838 24.6088 5.70634Z" fill="#8E1533"/>
<path d="M21.3082 7.27213C21.5139 7.61919 21.7038 7.91892 21.8937 8.23443C21.9887 8.40796 22.0837 8.59728 22.1945 8.83395C20.8997 9.59286 19.6364 10.336 18.3574 11.0633C14.1096 13.5298 9.90941 16.0752 5.58259 18.4313C3.10337 19.7912 1.51072 22.997 1.90837 25.7274C2.38545 28.8996 4.47321 31.1706 7.61806 31.9094C7.71289 31.9409 7.8235 31.9565 8.01313 31.9879C7.9347 32.572 7.85627 33.1561 7.77784 33.7403C3.65367 33.2707 0.142447 29.4701 0.0278733 25.382C-0.0705781 21.6253 1.4434 18.7511 4.74366 16.8379C10.002 13.8022 15.2445 10.7506 20.5028 7.6991C20.7555 7.55679 21.0082 7.43027 21.3082 7.27213Z" fill="#8E1533"/>
<path d="M39.8006 15.1938C39.8791 14.5939 39.9575 14.0571 40.0517 13.4257C42.8014 13.9597 44.983 15.2519 46.4547 17.6181C48.7808 21.3568 48.1378 26.2822 44.8069 29.174C43.5598 30.2644 41.9964 30.992 40.5436 31.8458C36.0749 34.4546 31.5903 37.0318 27.1057 39.6091C26.932 39.7197 26.7266 39.7989 26.5214 39.9096C26.2365 39.4205 25.9516 38.9472 25.6351 38.3951C25.872 38.237 26.1088 38.0789 26.3456 37.9367C31.6671 34.8535 36.9886 31.7861 42.3259 28.7187C44.9472 27.2166 46.1299 24.8636 45.9691 21.9751C45.7763 18.7079 43.7675 16.3738 40.7489 15.4612C40.4486 15.3668 40.1799 15.3039 39.8006 15.1938Z" fill="#8E1533"/>
<path d="M8.69088 14.0402C8.1381 14.2617 7.63272 14.4674 7.04836 14.7047C6.35158 13.0638 6.25514 11.375 6.55369 9.68572C7.51229 4.36539 13.0863 1.04521 18.2229 2.71338C18.6654 2.85501 19.108 3.05977 19.5032 3.29615C25.0678 6.47923 30.6324 9.69388 36.197 12.877C36.355 12.9715 36.4973 13.0661 36.7187 13.2079C36.4348 13.7291 36.1509 14.2187 35.8354 14.7715C33.9858 13.7157 32.1836 12.6757 30.3973 11.6514C26.54 9.42951 22.6827 7.22343 18.8413 5.00154C14.7468 2.62205 9.18788 5.21613 8.35506 9.90496C8.1037 11.3732 8.16779 12.2886 8.69088 14.0402Z" fill="#8E1533"/>
<path d="M39.0914 33.189C39.6599 32.9516 40.1653 32.7459 40.7339 32.5244C41.5416 34.5125 41.6068 36.5328 40.9925 38.5381C39.3074 44.0959 32.8793 46.6119 27.8681 43.7282C22.5248 40.6396 17.1657 37.5668 11.8066 34.494C11.5695 34.3522 11.3166 34.2104 11.032 34.037C11.3317 33.5001 11.6156 33.0263 11.8995 32.5209C12.105 32.6154 12.2947 32.6941 12.4685 32.7887C17.8276 35.8615 23.2024 38.8869 28.5142 42.0544C31.2966 43.7091 34.6614 43.248 36.6507 41.6992C39.1451 39.7395 40.1061 36.8184 39.2183 33.7571C39.1865 33.5677 39.1548 33.4099 39.0914 33.189Z" fill="#8E1533"/>
<path d="M58.1183 24.992C58.1106 17.0682 58.103 9.23902 58.0953 1.37831C58.2375 1.3466 58.3796 1.26755 58.5218 1.26741C62.0767 1.29552 65.6316 1.26049 69.1709 1.36754C71.6357 1.44406 73.9447 3.7148 74.2946 6.17685C74.6288 8.57578 73.8723 10.518 71.9303 11.9721C71.8514 12.0353 71.7883 12.1143 71.662 12.2407C71.9149 12.3983 72.1047 12.556 72.326 12.682C74.7923 14.2265 76.0275 17.1928 75.3191 19.8295C74.5005 22.8767 72.1483 24.9152 69.1148 24.9813C65.4968 25.048 61.8628 24.9884 58.1183 24.992ZM61.2509 13.1505C61.2543 16.6389 61.2576 20.08 61.261 23.4894C63.4571 23.4873 65.6377 23.7219 67.7387 23.42C70.4401 23.0385 72.0178 20.6693 71.857 17.844C71.7284 15.587 69.7197 13.3317 67.4444 13.1761C65.4061 13.036 63.3523 13.1485 61.2509 13.1505ZM61.1862 11.6353C63.0506 11.6335 64.7886 11.6949 66.5107 11.6143C68.9121 11.5015 70.7589 9.62133 70.8039 7.22203C70.849 4.80695 69.0933 2.88293 66.8338 2.69572C65.1115 2.55533 63.3736 2.62016 61.6356 2.59028C61.0984 2.57502 61.1778 2.96955 61.1781 3.30103C61.1801 5.28988 61.182 7.29453 61.1839 9.28338C61.1847 10.0568 61.1854 10.8145 61.1862 11.6353Z" fill="#06424B"/>
<path d="M79.1867 1.23137C80.0873 1.2305 80.9878 1.19806 81.8727 1.26033C82.0307 1.27596 82.2838 1.62298 82.284 1.82817C82.3323 2.74363 82.3016 3.67495 82.3025 4.59046C82.3072 9.40475 82.3751 14.219 82.285 19.0334C82.2403 21.8431 84.454 23.6246 86.6505 24.0486C89.1632 24.5355 91.9582 23.0333 92.746 20.7753C92.9351 20.2384 92.9819 19.6386 92.9814 19.0703C92.9917 13.4668 92.9863 7.86327 92.9808 2.25975C92.9805 1.94406 92.9802 1.64414 92.9798 1.26531C94.0384 1.26428 95.018 1.26333 96.0292 1.26235C96.061 1.45173 96.0927 1.60955 96.0929 1.75161C96.0982 7.22886 96.1509 12.6903 96.0772 18.1676C96.0341 22.5715 93.1451 24.9894 89.1166 25.3721C87.6947 25.5156 86.2095 25.4539 84.8189 25.1553C81.2316 24.4012 79.1911 22.0039 79.1084 18.2315C78.9924 12.6596 79.066 7.08757 79.0606 1.49984C79.1079 1.48401 79.1395 1.43662 79.1867 1.23137Z" fill="#06424B"/>
<path d="M115.422 22.8211C115.418 18.6856 115.414 14.5658 115.41 10.4303C115.407 7.71531 115.404 5.01615 115.402 2.3012C115.401 1.08579 115.448 1.03839 116.759 1.30545C116.767 9.1346 116.775 16.9637 116.782 24.9507C115.566 24.9519 114.334 24.9847 113.117 24.9227C112.927 24.9071 112.722 24.5601 112.595 24.3076C110.11 19.3221 107.656 14.3366 105.186 9.33527C104.236 7.42626 103.302 5.51724 102.352 3.60823C102.273 3.43468 102.163 3.26116 101.91 3.11934C101.917 10.3645 101.924 17.5938 101.931 24.902C101.425 24.9025 101.014 24.9029 100.54 24.9034C100.533 17.0427 100.525 9.19775 100.517 1.22654C101.734 1.22536 102.95 1.1926 104.167 1.25456C104.388 1.27013 104.641 1.63293 104.768 1.88536C107.95 8.27502 111.116 14.6805 114.298 21.0859C114.599 21.6854 114.9 22.285 115.201 22.8845C115.295 22.8686 115.358 22.837 115.422 22.8211Z" fill="#06424B"/>
<path d="M122.691 24.8976C122.185 24.8981 121.774 24.8985 121.316 24.899C121.309 17.0225 121.301 9.19333 121.293 1.22212C122.541 1.22091 123.79 1.18813 125.038 1.25005C125.243 1.26564 125.465 1.66004 125.607 1.92824C128.947 8.63344 132.272 15.3386 135.596 22.0439C135.707 22.2805 135.834 22.5172 136.103 22.7221C136.096 15.5875 136.089 8.43708 136.082 1.23931C136.603 1.23881 137.014 1.23841 137.488 1.23795C137.504 1.55362 137.536 1.82193 137.536 2.10605C137.543 9.39852 137.535 16.6752 137.573 23.9677C137.574 24.7095 137.4 25.0254 136.626 24.9472C136.026 24.8847 135.41 24.8695 134.809 24.949C133.925 25.0761 133.529 24.6661 133.165 23.9088C129.904 17.2351 126.595 10.5614 123.302 3.90355C123.16 3.60378 122.986 3.31982 122.67 3.05179C122.677 10.3285 122.684 17.5894 122.691 24.8976Z" fill="#06424B"/>
<path d="M150.63 13.2057C151.419 11.8475 152.113 10.6472 152.807 9.46266C154.258 6.99885 155.693 4.53505 157.192 2.10277C157.334 1.88165 157.855 1.91271 158.219 1.81765C158.282 2.07014 158.472 2.38565 158.377 2.55937C157.636 3.99649 156.863 5.41785 156.075 6.80766C154.639 9.31881 153.173 11.8142 151.753 14.3253C151.516 14.736 151.391 15.257 151.375 15.7305C151.346 18.3666 151.364 20.9868 151.367 23.6228C151.367 24.0174 151.368 24.4121 151.368 24.8698C150.294 24.8709 149.283 24.8718 148.145 24.8729C148.145 24.573 148.145 24.2731 148.144 23.9732C148.142 21.574 148.108 19.1905 148.153 16.7912C148.168 16.002 147.962 15.3234 147.582 14.6293C145.287 10.4644 143.024 6.28368 140.76 2.10297C140.618 1.85055 140.491 1.59812 140.301 1.20369C141.549 1.20248 142.687 1.1698 143.825 1.23184C144.014 1.24744 144.236 1.5787 144.378 1.81533C146.293 5.31765 148.209 8.81996 150.124 12.3223C150.25 12.5589 150.409 12.8113 150.63 13.2057Z" fill="#06424B"/>
<path d="M108.576 33.8929C107.93 36.2928 107.332 38.4559 106.734 40.619C106.371 41.961 105.994 43.3031 105.647 44.6451C105.521 45.1187 105.348 45.3399 104.811 45.3404C102.836 45.3581 102.82 45.3739 102.297 43.4487C100.981 38.683 99.6646 33.9332 98.3485 29.1675C98.2851 28.915 98.2217 28.6625 98.1265 28.2838C98.8217 28.2831 99.4536 28.2036 100.054 28.3135C100.291 28.3606 100.56 28.7865 100.639 29.0864C101.892 33.5364 103.129 37.9864 104.365 42.4523C104.429 42.7048 104.524 42.9414 104.651 43.3517C104.808 42.9096 104.934 42.6253 105.013 42.3412C105.926 39.0255 106.839 35.7098 107.705 32.3785C107.847 31.8259 107.783 31.1945 107.688 30.6264C107.56 29.8846 107.291 29.1746 107.038 28.2909C107.796 28.2902 108.475 28.2421 109.123 28.3204C109.297 28.3518 109.487 28.7621 109.566 29.0461C110.739 33.2121 111.897 37.3939 113.054 41.5757C113.213 42.1122 113.371 42.6487 113.704 43.1851C114.381 40.7062 115.073 38.2274 115.75 35.7485C116.333 33.6013 116.931 31.4382 117.514 29.2909C117.813 28.2015 117.813 28.2015 119.045 28.3424C118.841 29.1476 118.636 29.9528 118.416 30.7422C117.156 35.3526 115.881 39.9629 114.637 44.5732C114.48 45.1732 114.211 45.3471 113.595 45.3319C111.762 45.3021 111.762 45.3337 111.271 43.582C110.383 40.426 109.511 37.2699 108.576 33.8929Z" fill="#06424B"/>
<path d="M134.023 28.2487C135.082 28.2477 136.125 28.1993 137.168 28.2615C138.795 28.3388 140.454 28.274 142.018 28.6356C144.847 29.2958 146.398 31.9934 145.611 34.5039C145.075 36.225 143.765 37.126 142.169 37.68C141.901 37.775 141.632 37.8541 141.238 37.9808C142.946 40.41 144.608 42.7603 146.38 45.2683C145.432 45.2692 144.642 45.3015 143.836 45.255C143.662 45.2394 143.472 44.987 143.346 44.7977C142.001 42.8891 140.64 40.9805 139.343 39.0402C138.979 38.5039 138.599 38.2201 137.936 38.2997C137.414 38.3634 136.893 38.3165 136.261 38.3171C136.263 40.6532 136.265 42.9262 136.268 45.2466C135.478 45.2473 134.814 45.248 134.072 45.2487C134.034 39.6136 134.029 33.9943 134.023 28.2487ZM136.276 37.5594C137.903 37.2895 139.467 37.2091 140.905 36.7184C143.684 35.7686 144.171 32.1219 141.894 30.2773C140.218 28.9215 138.274 29.1601 136.284 29.1936C136.271 31.9401 136.273 34.6077 136.276 37.5594Z" fill="#06424B"/>
<path d="M96.696 36.3036C96.6518 39.5237 95.8642 42.0026 93.7804 43.8672C90.3865 46.917 85.1719 46.2275 82.5929 42.4575C80.3462 39.1765 80.3413 34.2043 82.6135 31.1715C84.6333 28.4862 87.3657 27.568 90.5579 28.2121C93.6078 28.8247 95.3952 30.9223 96.2512 33.8258C96.5365 34.7726 96.6165 35.7828 96.696 36.3036ZM83.2036 36.7745C83.2039 37.1375 83.1727 37.5164 83.2046 37.8794C83.4439 40.2468 84.1412 42.4244 86.165 43.9062C87.0821 44.5683 88.157 45.1039 89.3259 44.866C90.8582 44.533 92.2003 43.7267 92.9573 42.3054C94.9287 38.6414 95.1147 34.9161 92.915 31.2878C91.0477 28.2274 86.7976 28.2157 84.7781 31.1852C83.6106 32.891 83.1384 34.7541 83.2036 36.7745Z" fill="#06424B"/>
<path d="M147.923 41.2734C148.223 41.1784 148.539 41.0834 148.745 41.0042C149.172 41.7931 149.473 42.5978 149.979 43.2287C151.435 45.0267 154.942 45.0549 156.489 43.3486C157.373 42.3691 157.292 40.554 156.169 39.6553C155.347 38.9932 154.351 38.5206 153.403 38.0164C152.249 37.3862 151.016 36.898 149.909 36.2046C148.344 35.2275 147.932 33.6494 148.214 31.9286C148.481 30.2236 149.412 29.0389 151.134 28.4532C153.14 27.7567 155.052 27.818 156.917 28.8422C157.331 29.0692 157.534 29.3071 157.744 29.6424C157.823 29.7686 157.902 29.9581 157.981 30.1159C158.163 30.4777 158.219 30.8262 158.136 31.3981C157.756 30.8776 157.456 30.2465 156.981 29.805C155.605 28.512 152.777 28.7199 151.531 30.1417C150.426 31.3898 150.823 33.7255 152.42 34.671C153.59 35.3644 154.901 35.8051 156.119 36.4195C156.814 36.7661 157.541 37.1443 158.095 37.6804C159.945 39.4465 159.822 42.3352 157.896 44.0418C155.765 45.9222 152.004 46.1942 149.728 44.6337C148.605 43.8614 147.893 42.5677 147.923 41.2734Z" fill="#06424B"/>
<path d="M121.052 45.2616C121.046 39.6108 121.041 34.0072 121.035 28.3406C124.432 28.3373 127.845 28.334 131.305 28.3306C131.321 28.5516 131.337 28.8041 131.369 29.1513C128.683 29.1539 126.045 29.1565 123.327 29.1591C123.329 31.369 123.331 33.4841 123.333 35.6782C125.545 35.676 127.742 35.6739 130.001 35.6717C130.001 36.0505 130.002 36.3504 130.002 36.7293C127.758 36.7314 125.562 36.7336 123.319 36.7358C123.321 39.3086 123.324 41.7868 123.326 44.3597C126.012 44.3571 128.651 44.3545 131.337 44.3519C131.337 44.6834 131.337 44.9359 131.337 45.2359C127.925 45.255 124.528 45.2583 121.052 45.2616Z" fill="#06424B"/>
<path d="M67.0391 35.7646C67.0394 36.1276 67.0397 36.4118 67.0401 36.8064C66.3449 36.8071 65.6497 36.8077 64.9388 36.8084C63.6432 36.8097 62.3634 36.8425 61.0678 36.7964C60.42 36.7655 60.2781 37.0182 60.2786 37.618C60.3125 39.9067 60.2673 42.1955 60.3169 44.4842C60.3334 45.2261 60.0967 45.4789 59.3856 45.4006C59.0064 45.3537 58.6114 45.3856 58.1532 45.3861C58.1477 39.7036 58.1422 34.0843 58.1367 28.4019C61.502 28.3986 64.8674 28.3953 68.2801 28.392C68.2804 28.6603 68.2806 28.9129 68.2809 29.2444C66.8748 29.2457 65.516 29.2471 64.1572 29.2484C63.0828 29.2494 61.9926 29.2347 60.9183 29.2673C60.6971 29.2675 60.3181 29.5047 60.3025 29.6309C60.2728 31.6514 60.2748 33.656 60.2768 35.7712C62.5994 35.7689 64.7955 35.7668 67.0391 35.7646Z" fill="#06424B"/>
<path d="M72.9897 44.44C75.6125 44.4374 78.0772 44.435 80.6052 44.4326C80.6213 44.7324 80.6531 44.985 80.6692 45.3006C77.3671 45.3039 74.1282 45.307 70.826 45.3102C70.8205 39.6751 70.8151 34.0716 70.8096 28.3892C71.489 28.3885 72.1841 28.3878 72.9741 28.3871C72.9793 33.6907 72.9844 38.9943 72.9897 44.44Z" fill="#06424B"/>
</svg>
