<svg width="25" height="25" viewBox="0 0 25 25" fill="none" xmlns="http://www.w3.org/2000/svg">
<path d="M17.2081 14.3178C17.3433 14.7554 17.1136 15.025 16.7095 15.2864C15.2988 16.1969 13.92 17.1496 12.5252 18.0938C12.3271 18.2287 12.1765 18.2541 11.9543 18.128C10.4151 17.254 8.87585 16.4052 7.3287 15.5565C7.08275 15.422 6.99536 15.2621 6.98716 14.9759C6.92984 13.1155 6.84873 11.2551 6.79933 9.38626C6.7992 9.25156 6.88624 9.05785 6.98927 8.9904C8.50285 7.94504 10.0323 6.91651 11.5618 5.89639C11.6569 5.83737 11.8393 5.83719 11.9424 5.8876C13.5372 6.75315 15.124 7.64396 16.7187 8.50951C16.9568 8.63556 16.9887 8.81231 16.9968 9.04802C17.0619 10.7822 17.135 12.5163 17.2081 14.3178ZM16.2796 13.5947C16.2717 13.5947 16.2638 13.5947 16.2638 13.5947C16.2149 12.2646 16.1581 10.9346 16.1171 9.60449C16.1089 9.33511 16.0057 9.20894 15.7995 9.0997C14.5697 8.42742 13.3399 7.75514 12.118 7.06601C11.88 6.93155 11.7055 6.93172 11.4757 7.09189C10.4614 7.80003 9.44706 8.51658 8.40095 9.16582C7.88582 9.48622 7.67204 9.81475 7.73613 10.4882C7.85636 11.8097 7.86559 13.1483 7.90654 14.4783C7.91471 14.7309 8.01791 14.8486 8.20834 14.9579C9.43812 15.6302 10.6679 16.3109 11.8898 17C12.1199 17.1345 12.2785 17.1259 12.4924 16.9742C13.6573 16.1733 14.8223 15.3892 16.0031 14.6136C16.2091 14.4787 16.3041 14.3271 16.2801 14.0745C16.2641 13.9062 16.2798 13.7546 16.2796 13.5947Z" fill="#8E1533"/>
<path d="M11.6568 21.5884C11.8949 21.7986 12.1091 21.9836 12.3472 22.1938C11.682 23.1037 10.8262 23.6854 9.78756 23.9053C6.4815 24.6156 4.1553 21.7893 4.20817 19.0785C4.27639 15.8373 4.21773 12.5963 4.21457 9.3552C4.21443 9.20366 4.21428 9.05213 4.2141 8.86693C4.53129 8.86662 4.80884 8.86635 5.14982 8.86602C5.14999 9.03439 5.15015 9.20276 5.15031 9.36271C5.15351 12.6627 5.15672 15.9543 5.15993 19.2544C5.16182 21.199 6.60665 22.8476 8.43862 23.0226C9.73924 23.1477 10.7776 22.6331 11.6568 21.5884Z" fill="#8E1533"/>
<path d="M12.3519 2.46935C12.09 2.24231 11.8678 2.04048 11.6297 1.83867C12.4217 0.810851 13.4203 0.212169 14.6096 0.0510618C16.9803 -0.279563 19.1944 1.41881 19.6805 3.90178C19.7124 4.07853 19.7364 4.26372 19.7366 4.4405C19.7399 7.91732 19.7433 11.3941 19.7467 14.8709C19.7468 14.9551 19.7389 15.0309 19.7311 15.1404C19.4377 15.1406 19.1681 15.1409 18.8271 15.1412C18.8269 14.9813 18.8268 14.8213 18.8266 14.6614C18.8235 11.4371 18.7728 8.21291 18.841 4.98857C18.879 3.25434 17.6959 1.72333 16.5853 1.26981C15.0939 0.673556 13.6114 1.02015 12.4707 2.29245C12.4311 2.33458 12.4074 2.38511 12.3519 2.46935Z" fill="#8E1533"/>
<path d="M10.6945 3.30442C10.7977 3.48953 10.8931 3.64939 10.9884 3.81766C11.0361 3.91022 11.0837 4.01119 11.1394 4.13742C10.4895 4.54213 9.8555 4.93842 9.21356 5.32629C7.0817 6.64164 4.97368 7.99906 2.80212 9.25552C1.55783 9.98072 0.75858 11.6904 0.958243 13.1466C1.19778 14.8385 2.24571 16.0497 3.82413 16.4439C3.87173 16.4607 3.92724 16.469 4.02242 16.4858C3.98307 16.7973 3.94373 17.1088 3.90438 17.4203C1.83444 17.1698 0.0720384 15.1427 0.0144089 12.9623C-0.0351188 10.9588 0.724659 9.42591 2.38101 8.40567C5.02008 6.78676 7.65121 5.15944 10.2903 3.53211C10.4171 3.45622 10.5439 3.38875 10.6945 3.30442Z" fill="#8E1533"/>
<path d="M19.9764 7.52981C20.0158 7.20987 20.0551 6.92361 20.1024 6.58682C21.4825 6.87171 22.5774 7.56095 23.3162 8.823C24.4838 10.817 24.1612 13.4439 22.4895 14.9861C21.8636 15.5676 21.0789 15.9556 20.3498 16.4109C18.107 17.8021 15.8563 19.1765 13.6055 20.5509C13.5184 20.6099 13.4153 20.6521 13.3123 20.7112C13.1693 20.4503 13.0263 20.1979 12.8674 19.9034C12.9863 19.8191 13.1052 19.7348 13.224 19.6589C15.8948 18.0147 18.5656 16.379 21.2443 14.7432C22.5599 13.9422 23.1534 12.6872 23.0726 11.1467C22.9757 9.4042 21.9674 8.15926 20.4524 7.67246C20.3016 7.6221 20.1668 7.58855 19.9764 7.52981Z" fill="#8E1533"/>
<path d="M4.36263 6.91365C4.0852 7.03178 3.83155 7.14147 3.53827 7.26803C3.18851 6.39285 3.14005 5.49212 3.28984 4.59121C3.7708 1.75372 6.56832 -0.016871 9.1464 0.872977C9.36851 0.948527 9.59065 1.05775 9.78902 1.18383C12.582 2.88164 15.375 4.59629 18.1679 6.2941C18.2473 6.34453 18.3187 6.39497 18.4298 6.47063C18.2873 6.74858 18.1448 7.00969 17.9865 7.30449C17.0582 6.74136 16.1536 6.18662 15.257 5.64029C13.321 4.45517 11.385 3.27848 9.45685 2.09335C7.40178 0.824163 4.61181 2.2075 4.19396 4.70819C4.06784 5.49122 4.10004 5.97946 4.36263 6.91365Z" fill="#8E1533"/>
<path d="M19.6209 17.1272C19.9062 17.0007 20.1599 16.891 20.4453 16.7728C20.8507 17.8332 20.8835 18.9107 20.5753 19.9801C19.7296 22.9443 16.5035 24.2859 13.9882 22.7478C11.3063 21.1004 8.61652 19.4614 5.9267 17.8224C5.80768 17.7468 5.68072 17.6711 5.5379 17.5787C5.68828 17.2923 5.83078 17.0396 5.97325 16.7701C6.07639 16.8205 6.17159 16.8625 6.25887 16.9129C8.94868 18.5519 11.6464 20.1656 14.3125 21.8551C15.709 22.7377 17.3978 22.4919 18.3962 21.666C19.6481 20.6208 20.1303 19.063 19.6846 17.4302C19.6687 17.3292 19.6527 17.245 19.6209 17.1272Z" fill="#8E1533"/>
</svg>
